<?xml version="1.0" encoding="UTF-8" standalone="no"?>
<!-- Created with Inkscape (http://www.inkscape.org/) -->
<svg xmlns:dc="http://purl.org/dc/elements/1.1/" xmlns:cc="http://creativecommons.org/ns#" xmlns:rdf="http://www.w3.org/1999/02/22-rdf-syntax-ns#" xmlns:svg="http://www.w3.org/2000/svg" xmlns="http://www.w3.org/2000/svg" xmlns:sodipodi="http://sodipodi.sourceforge.net/DTD/sodipodi-0.dtd" xmlns:inkscape="http://www.inkscape.org/namespaces/inkscape" width="35.177555mm" height="26.647358mm" viewBox="0 0 124.64488 94.41977" id="svg5220" version="1.1" inkscape:version="0.92.2 5c3e80d, 2017-08-06" sodipodi:docname="logo_n2i_color_title.svg">
  <defs id="defs5222">
    <filter inkscape:collect="always" style="color-interpolation-filters:sRGB" id="filter18108" x="-0.031965509" width="1.063931" y="-0.041200012" height="1.0824">
      <feGaussianBlur inkscape:collect="always" stdDeviation="2.5063178" id="feGaussianBlur18110"/>
    </filter>
  </defs>
  <sodipodi:namedview id="base" pagecolor="#ffffff" bordercolor="#666666" borderopacity="1.0" inkscape:pageopacity="0.0" inkscape:pageshadow="2" inkscape:zoom="4.0000001" inkscape:cx="45.072406" inkscape:cy="41.437288" inkscape:document-units="px" inkscape:current-layer="layer3" showgrid="false" inkscape:window-width="1440" inkscape:window-height="856" inkscape:window-x="-1" inkscape:window-y="0" inkscape:window-maximized="0" inkscape:snap-global="false" showguides="false" fit-margin-top="0" fit-margin-left="0" fit-margin-right="0" fit-margin-bottom="0">
    <inkscape:grid type="xygrid" id="grid17998" originx="2672.0717" originy="-908.31633"/>
  </sodipodi:namedview>
  <metadata id="metadata5225">
    <rdf:RDF>
      <cc:Work rdf:about="">
        <dc:format>image/svg+xml</dc:format>
        <dc:type rdf:resource="http://purl.org/dc/dcmitype/StillImage"/>
        <dc:title/>
      </cc:Work>
    </rdf:RDF>
  </metadata>
  <g inkscape:groupmode="layer" id="layer3" inkscape:label="textes" transform="translate(2672.0718,-49.626054)">
    <g id="g929" transform="matrix(0.36779009,0,0,0.35232735,-1686.9427,90.96684)" style="stroke-width:2.77796531">
      <g id="g2152" transform="matrix(1.6927593,0,0,1.6958162,-1041.8643,-1486.391)" style="fill:#00eba7;fill-opacity:1;stroke-width:1.67221558;filter:url(#filter18108)">
        <g id="text2118" style="font-style:normal;font-variant:normal;font-weight:normal;font-stretch:normal;line-height:0%;font-family:Slackey;-inkscape-font-specification:'Slackey, Normal';text-align:center;writing-mode:lr-tb;text-anchor:middle;opacity:1;fill:#00eba7;fill-opacity:1;fill-rule:nonzero;stroke:none;stroke-width:15.04994011;stroke-linecap:round;stroke-linejoin:round;stroke-miterlimit:7;stroke-dasharray:none;stroke-dashoffset:0;stroke-opacity:1" aria-label="2018">
          <path inkscape:connector-curvature="0" id="path3513" style="font-size:78.02920532px;line-height:1.25;stroke-width:15.04994011" d="m -916.71514,938.60085 q -0.1524,4.57202 -0.2286,9.14405 -0.0762,4.57202 -0.3048,9.14404 l -39.85281,1.44781 q -0.381,-5.79123 -0.91441,-11.50626 -0.4572,-5.79123 -0.9144,-11.65866 3.04802,-1.143 6.24843,-2.51461 3.20042,-1.44781 6.24843,-3.20042 3.04802,-1.75261 5.86744,-3.81002 2.81941,-2.05741 5.02922,-4.49582 1.14301,-1.29541 1.98121,-2.51461 0.91441,-1.29541 0.91441,-3.04802 0,-4.11482 -1.67641,-5.41023 -1.60021,-1.37161 -5.18163,-1.37161 -1.52401,0 -3.12422,0.0762 -1.524,0 -2.89561,0.2286 -2.20981,0.381 -2.74321,1.4478 -0.45721,1.06681 -0.45721,3.12422 0,0.6096 0,1.29541 0.0762,0.6858 0.1524,1.3716 l -11.81106,1.60021 q -0.4572,-3.42902 -0.4572,-6.78183 0,-0.83821 0.0762,-2.43842 0.1524,-1.6002 0.4572,-3.27661 0.381,-1.67641 0.91441,-3.12422 0.5334,-1.44781 1.44781,-1.98121 1.3716,-0.8382 4.34342,-1.44781 2.97181,-0.6096 6.32463,-0.9144 3.42902,-0.381 6.55323,-0.5334 3.12422,-0.1524 4.80063,-0.1524 2.89561,0 5.41023,0.1524 2.59081,0.1524 4.64822,0.9906 2.13361,0.762 3.65762,2.59081 1.52401,1.75261 2.28601,4.95303 0.381,1.75261 0.4572,3.58142 0.0762,1.82881 0.0762,3.58142 0,0.6858 -0.0762,1.82881 0,1.143 -0.0762,2.36221 -0.0762,1.21921 -0.3048,2.28601 -0.2286,1.06681 -0.5334,1.75261 -0.4572,0.8382 -1.82881,2.20981 -1.29541,1.29541 -2.89561,2.66702 -1.60021,1.2954 -3.12422,2.51461 -1.52401,1.143 -2.36221,1.75261 -1.29541,0.9144 -2.74322,1.75261 -1.3716,0.762 -2.66701,1.6002 -2.51461,1.44781 -5.10543,2.89562 -2.51461,1.37161 -5.10542,2.74321 14.70667,-0.2286 29.48955,-0.9144 z"/>
          <path inkscape:connector-curvature="0" id="path3515" style="font-size:78.02920532px;line-height:1.25;stroke-width:15.04994011" d="m -861.92706,920.84616 q 0,1.3716 0,3.73382 0,2.28601 -0.0762,5.18162 -0.0762,2.81942 -0.2286,5.86743 -0.1524,2.97182 -0.4572,5.71503 -0.3048,2.66702 -0.83821,4.72443 -0.4572,2.05741 -1.143,2.97181 -0.91441,1.06681 -2.13361,2.36222 -1.14301,1.2192 -2.51462,2.43841 -1.3716,1.143 -2.81941,2.05741 -1.37161,0.9144 -2.74321,1.29541 -1.21921,0.381 -3.42902,0.6096 -2.13361,0.2286 -4.49583,0.3048 -2.28601,0.1524 -4.49582,0.1524 -2.20981,0.0762 -3.58142,0.0762 -0.6858,0 -1.98121,0 -1.2192,0 -2.59081,-0.1524 -1.37161,-0.0762 -2.59082,-0.2286 -1.2192,-0.1524 -1.7526,-0.5334 -1.67641,-1.06681 -3.12422,-2.51462 -1.37161,-1.524 -2.43841,-3.27661 -0.99061,-1.60021 -1.52401,-3.65762 -0.5334,-2.05741 -0.91441,-3.96242 -0.381,-2.13361 -0.762,-4.64823 -0.3048,-2.59081 -0.6096,-5.25782 -0.2286,-2.66702 -0.38101,-5.25783 -0.1524,-2.59081 -0.1524,-4.87683 0,-1.2954 0.1524,-4.03862 0.15241,-2.81941 0.45721,-5.79123 0.381,-2.97181 0.9144,-5.56263 0.5334,-2.66701 1.37161,-3.65762 0.8382,-1.0668 2.59081,-1.90501 1.75261,-0.9144 3.96242,-1.6002 2.20981,-0.68581 4.64823,-1.14301 2.51461,-0.5334 4.87682,-0.8382 2.36221,-0.38101 4.34343,-0.53341 1.98121,-0.1524 3.20041,-0.1524 1.29541,0 2.89562,0.0762 1.60021,0 3.20041,0.1524 1.67641,0.1524 3.20042,0.45721 1.52401,0.3048 2.74321,0.8382 0.99061,0.4572 2.36222,1.44781 1.3716,0.9144 2.59081,2.05741 1.29541,1.143 2.28601,2.36221 1.06681,1.21921 1.44781,2.13361 0.2286,0.4572 0.3048,2.28601 0.0762,1.75261 0.1524,3.81002 0.0762,2.05741 0.0762,3.96242 0,1.82881 0,2.51462 z m -14.93528,8.99164 q 0,-0.8382 -0.0762,-2.59081 -0.0762,-1.82881 -0.2286,-4.03862 -0.0762,-2.28601 -0.2286,-4.64822 -0.1524,-2.43842 -0.4572,-4.57203 -0.2286,-2.13361 -0.5334,-3.65762 -0.3048,-1.60021 -0.68581,-2.13361 -0.6096,-0.8382 -1.82881,-0.9906 -1.2192,-0.2286 -2.20981,-0.2286 -0.8382,0 -2.43841,0.1524 -1.52401,0.1524 -3.20042,0.5334 -1.67641,0.3048 -3.12421,0.762 -1.44781,0.45721 -2.05741,1.06681 -0.91441,0.9144 -1.44781,3.65762 -0.4572,2.66701 -0.6858,5.86743 -0.22861,3.20041 -0.30481,6.17223 0,2.97182 0,4.41962 0,0.83821 0.0762,2.59082 0.0762,1.6764 0.1524,3.88622 0.15241,2.13361 0.30481,4.49582 0.2286,2.28601 0.4572,4.34342 0.2286,1.98121 0.4572,3.42902 0.3048,1.37161 0.6858,1.75261 0.30481,0.3048 0.83821,0.4572 0.6096,0.1524 1.29541,0.2286 0.6858,0.0762 1.2954,0.0762 0.60961,0 0.99061,0 0.8382,0 2.05741,-0.0762 1.2954,-0.0762 2.59081,-0.2286 1.37161,-0.1524 2.51461,-0.381 1.21921,-0.2286 1.98121,-0.6096 0.76201,-0.38101 1.37161,-1.75261 0.60961,-1.37161 0.99061,-3.27662 0.4572,-1.90501 0.6858,-4.03862 0.3048,-2.20981 0.4572,-4.26722 0.1524,-2.05741 0.2286,-3.73382 0.0762,-1.75261 0.0762,-2.66702 z"/>
          <path inkscape:connector-curvature="0" id="path3517" style="font-size:78.02920532px;line-height:1.25;stroke-width:15.04994011" d="m -831.3707,956.58414 q -4.64823,-0.381 -9.22025,-0.5334 -4.49582,-0.2286 -9.06785,-0.3048 l 2.05741,-40.69101 -6.09603,-0.60961 q 1.21921,-3.65761 1.67641,-7.31523 0.4572,-3.65762 1.06681,-7.39144 l 16.38308,-0.4572 q 0.91441,14.40187 1.60021,28.65134 0.762,14.24948 1.60021,28.65135 z"/>
          <path inkscape:connector-curvature="0" id="path3519" style="font-size:78.02920532px;line-height:1.25;stroke-width:15.04994011" d="m -775.3634,947.9735 q 0,1.2192 -0.1524,2.89561 -0.0762,1.67641 -0.6858,2.74322 -0.38101,0.6096 -1.06681,1.44781 -0.6096,0.8382 -1.44781,1.6764 -0.8382,0.76201 -1.67641,1.37161 -0.8382,0.6096 -1.524,0.83821 -0.30481,0.0762 -1.29541,0.1524 -0.91441,0.0762 -2.36221,0.0762 -1.37161,0.0762 -3.12422,0.0762 -1.67641,0 -3.35282,0 h -8.99164 q -2.28602,0.0762 -4.49583,0.0762 -1.90501,0 -4.03862,0 -2.13361,0 -3.73382,-0.1524 -1.2954,-0.0762 -2.43841,-1.52401 -1.06681,-1.44781 -1.90501,-3.35282 -0.8382,-1.90501 -1.44781,-3.81002 -0.5334,-1.90501 -0.762,-2.97181 -0.381,-1.37161 -0.4572,-2.59082 -0.0762,-1.2192 -0.0762,-2.59081 0,-1.14301 0.0762,-2.66701 0.0762,-1.52401 0.3048,-3.04802 0.3048,-1.52401 0.8382,-2.89562 0.53341,-1.3716 1.44781,-2.20981 0.381,-0.3048 1.14301,-0.6096 0.8382,-0.381 1.7526,-0.6858 0.91441,-0.38101 1.67641,-0.68581 0.83821,-0.3048 1.29541,-0.4572 -0.6096,-0.1524 -1.52401,-0.4572 -0.9144,-0.381 -1.82881,-0.83821 -0.9144,-0.4572 -1.67641,-1.0668 -0.762,-0.60961 -0.9906,-1.29541 -0.381,-1.0668 -0.762,-2.51461 -0.30481,-1.44781 -0.60961,-2.97182 -0.3048,-1.60021 -0.4572,-3.04801 -0.1524,-1.52401 -0.1524,-2.66702 0,-0.762 0,-2.28601 0,-1.52401 0.0762,-3.12422 0.1524,-1.6002 0.3048,-2.97181 0.2286,-1.37161 0.6858,-1.98121 1.14301,-1.52401 2.43842,-2.43841 1.3716,-0.91441 2.81941,-1.37161 1.52401,-0.5334 3.12422,-0.6858 1.67641,-0.15241 3.42902,-0.22861 2.81941,-0.0762 5.56262,-0.0762 2.74322,-0.0762 5.56263,-0.0762 0.83821,0 2.28602,0 1.524,0 3.12421,0 1.60021,0 3.04802,0.0762 1.4478,0.0762 2.13361,0.22861 1.29541,0.3048 2.66701,1.7526 1.44781,1.44781 2.66702,3.27662 1.2954,1.82881 2.13361,3.73382 0.9144,1.82881 1.0668,3.04802 0.3048,1.82881 0.3048,3.73382 0,1.82881 0,3.65762 0,0.4572 0,1.2954 0,0.83821 -0.0762,1.75261 0,0.83821 -0.0762,1.67641 -0.0762,0.762 -0.2286,1.14301 -0.1524,0.3048 -1.143,1.0668 -0.91441,0.76201 -2.13361,1.60021 -1.14301,0.8382 -2.20982,1.60021 -0.9906,0.6858 -1.2192,0.8382 0.762,0.381 1.82881,0.99061 1.0668,0.6096 2.13361,1.4478 1.0668,0.76201 1.90501,1.67641 0.8382,0.91441 1.0668,1.82881 0.30481,1.29541 0.53341,2.89562 0.2286,1.60021 0.381,3.35282 0.1524,1.6764 0.2286,3.35281 0.0762,1.67641 0.0762,2.97182 z m -14.78288,-30.17536 q 0,-0.6858 -0.0762,-2.43841 -0.0762,-1.75261 -0.3048,-3.58142 -0.2286,-1.90501 -0.6096,-3.50522 -0.3048,-1.60021 -0.83821,-2.05741 -0.2286,-0.2286 -0.8382,-0.3048 -0.6096,-0.1524 -1.29541,-0.1524 -0.6096,-0.0762 -1.2954,-0.0762 -0.60961,-0.0762 -0.91441,-0.0762 -0.5334,0 -2.28601,0.0762 -1.67641,0.0762 -3.58142,0.2286 -1.90501,0.1524 -3.50522,0.381 -1.60021,0.2286 -1.98121,0.5334 -0.4572,0.38101 -0.8382,1.37161 -0.3048,0.91441 -0.60961,2.05741 -0.2286,1.14301 -0.381,2.28601 -0.1524,1.06681 -0.1524,1.60021 0,0.60961 0.0762,2.05741 0.0762,1.44781 0.2286,2.97182 0.1524,1.52401 0.38101,2.89561 0.3048,1.29541 0.6858,1.67641 0.381,0.381 1.0668,0.60961 0.76201,0.1524 1.60021,0.3048 0.83821,0.0762 1.60021,0.0762 0.76201,0 1.29541,0 1.0668,0 2.74321,0.0762 1.75261,0 3.50522,-0.0762 1.75261,-0.1524 3.27662,-0.53341 1.60021,-0.381 2.28601,-1.143 0.2286,-0.3048 0.381,-0.99061 0.1524,-0.762 0.2286,-1.524 0.0762,-0.83821 0.0762,-1.60021 0.0762,-0.76201 0.0762,-1.14301 z m 0.83821,22.47912 q 0,-0.76201 -0.0762,-1.67641 -0.0762,-0.99061 -0.3048,-1.90501 -0.22861,-0.91441 -0.68581,-1.67641 -0.381,-0.8382 -1.0668,-1.29541 -0.53341,-0.381 -1.90501,-0.381 -1.29541,-0.0762 -2.05741,-0.0762 -0.76201,0 -2.59082,0.0762 -1.82881,0.0762 -3.88622,0.3048 -1.98121,0.1524 -3.73382,0.45721 -1.75261,0.3048 -2.28601,0.762 -0.4572,0.381 -0.8382,1.29541 -0.3048,0.8382 -0.53341,1.90501 -0.2286,0.9906 -0.381,1.98121 -0.1524,0.9906 -0.1524,1.524 0,0.68581 0.2286,2.13362 0.2286,1.3716 0.60961,2.89561 0.381,1.44781 0.9144,2.66701 0.5334,1.14301 1.21921,1.44781 0.1524,0.0762 0.5334,0.1524 0.381,0 0.8382,0 0.45721,0 0.83821,0 0.381,0 0.6096,0 0.5334,0 2.43841,0 1.90501,-0.0762 3.96242,-0.1524 2.05742,-0.0762 3.81002,-0.2286 1.75261,-0.1524 2.05741,-0.3048 0.60961,-0.3048 1.06681,-1.67641 0.4572,-1.37161 0.762,-2.97181 0.30481,-1.60021 0.45721,-3.12422 0.1524,-1.52401 0.1524,-2.13361 z"/>
        </g>
        <g transform="matrix(0.53012825,0,0,0.53359331,2330.0998,-3039.1599)" style="font-style:normal;font-variant:normal;font-weight:bold;font-stretch:normal;font-size:56.70814896px;line-height:100%;font-family:Raleway;-inkscape-font-specification:'Raleway, Bold';text-align:center;writing-mode:lr-tb;text-anchor:middle;opacity:1;fill:#00eba7;fill-opacity:1;fill-rule:nonzero;stroke:none;stroke-width:25.08323669;stroke-linecap:round;stroke-linejoin:round;stroke-miterlimit:4;stroke-dasharray:none;stroke-dashoffset:0;stroke-opacity:1" id="g2140">
          <path inkscape:connector-curvature="0" d="m -6207.571,7260.896 v -40.2628 h 7.8257 v 33.4011 h 20.5283 v 6.8617 z" id="path2120" style="fill:#00eba7;fill-opacity:1;stroke-width:25.08323669"/>
          <path inkscape:connector-curvature="0" d="m -6162.9993,7220.6332 h 6.9184 l 15.3112,40.2628 h -8.0526 l -3.7427,-10.0373 h -14.0636 l -3.6861,10.0373 h -8.0525 z m 9.0166,24.7248 -5.5574,-15.8216 -5.7842,15.8216 z" id="path2122" style="fill:#00eba7;fill-opacity:1;stroke-width:25.08323669"/>
          <path inkscape:connector-curvature="0" d="m -6116.6767,7235.0938 v 25.8022 h -7.8258 v -40.2628 h 6.0678 l 20.982,26.426 v -26.3693 h 7.8258 v 40.2061 h -6.3514 z" id="path2124" style="fill:#00eba7;fill-opacity:1;stroke-width:25.08323669"/>
          <path inkscape:connector-curvature="0" d="m -6064.1836,7254.2611 q 2.7787,0 4.6501,-1.1341 1.9281,-1.1342 3.0622,-2.9488 1.1909,-1.8147 1.6446,-4.1397 0.5103,-2.3818 0.5103,-4.8769 v -20.5284 h 7.769 v 20.5284 q 0,4.1397 -1.0207,7.769 -0.964,3.6293 -3.1189,6.3513 -2.0983,2.722 -5.444,4.3098 -3.3458,1.5878 -7.9959,1.5878 -4.8202,0 -8.2227,-1.6445 -3.3457,-1.7012 -5.4439,-4.4232 -2.0982,-2.7787 -3.0623,-6.4081 -0.9073,-3.6293 -0.9073,-7.5421 v -20.5284 h 7.8257 v 20.5284 q 0,2.5518 0.4537,4.9336 0.5103,2.325 1.6445,4.1397 1.1909,1.8146 3.0623,2.9488 1.8713,1.0774 4.5933,1.0774 z" id="path2126" style="fill:#00eba7;fill-opacity:1;stroke-width:25.08323669"/>
          <path inkscape:connector-curvature="0" d="m -6038.6649,7260.896 v -40.2628 h 7.8257 v 40.2628 z" id="path2128" style="fill:#00eba7;fill-opacity:1;stroke-width:25.08323669"/>
          <path inkscape:connector-curvature="0" d="m -5992.3822,7227.4949 h -12.8728 v 33.4011 h -7.769 v -33.4011 h -12.8727 v -6.8617 h 33.5145 z" id="path2130" style="fill:#00eba7;fill-opacity:1;stroke-width:25.08323669"/>
          <path inkscape:connector-curvature="0" d="m -5975.3113,7260.896 v -40.2628 h 14.6307 q 4.9336,0 8.6197,1.5878 3.7427,1.5879 6.2379,4.3099 2.4951,2.7219 3.7427,6.408 1.2476,3.6293 1.2476,7.769 0,4.5934 -1.4177,8.3361 -1.361,3.686 -3.9696,6.3513 -2.6086,2.6086 -6.2946,4.083 -3.6293,1.4177 -8.166,1.4177 z m 26.5961,-20.1881 q 0,-2.8921 -0.7939,-5.3306 -0.7939,-2.4384 -2.325,-4.1964 -1.5311,-1.7579 -3.7995,-2.722 -2.2116,-0.964 -5.047,-0.964 h -6.805 v 26.5394 h 6.805 q 2.8921,0 5.1038,-1.0207 2.2683,-1.0208 3.7427,-2.7787 1.5311,-1.8147 2.325,-4.2531 0.7939,-2.4385 0.7939,-5.2739 z" id="path2132" style="fill:#00eba7;fill-opacity:1;stroke-width:25.08323669"/>
          <path inkscape:connector-curvature="0" d="m -5906.8167,7254.0343 v 6.8617 h -27.9571 v -40.2628 h 27.4467 v 6.8617 h -19.621 v 9.6971 h 16.9557 v 6.3513 h -16.9557 v 10.491 z" id="path2134" style="fill:#00eba7;fill-opacity:1;stroke-width:25.08323669"/>
          <path inkscape:connector-curvature="0" d="m -5887.0371,7260.896 v -40.2628 h 7.8257 v 33.4011 h 20.5284 v 6.8617 z" id="path2136" style="fill:#00eba7;fill-opacity:1;stroke-width:25.08323669"/>
          <path inkscape:connector-curvature="0" d="m -5859.3095,7232.5986 v -12.7026 h 6.4648 v 12.7026 z" id="path2138" style="fill:#00eba7;fill-opacity:1;stroke-width:25.08323669"/>
        </g>
        <g transform="matrix(0.53012825,0,0,0.53359331,2330.0998,-3039.1599)" style="font-style:normal;font-variant:normal;font-weight:normal;font-stretch:normal;font-size:120.63054657px;line-height:100%;font-family:Slackey;-inkscape-font-specification:'Slackey, Normal';text-align:center;writing-mode:lr-tb;text-anchor:middle;opacity:1;fill:#00eba7;fill-opacity:1;fill-rule:nonzero;stroke:none;stroke-width:25.08323669;stroke-linecap:round;stroke-linejoin:round;stroke-miterlimit:4;stroke-dasharray:none;stroke-dashoffset:0;stroke-opacity:1" id="g2150">
          <path inkscape:connector-curvature="0" d="m -6156.6293,7276.0895 q -0.589,7.186 -0.4712,14.372 0.1178,7.0682 -0.1178,14.1364 l -13.0761,-0.4712 q -0.1178,4.1231 -0.2356,8.1284 0,4.0053 0,8.1285 0,4.9477 0,9.7776 0.1178,4.7122 0.2356,9.6599 l 12.0159,0.2356 q -0.2356,3.4163 -0.2356,6.9504 0,3.5341 0,7.0682 0,2.9451 0.1178,5.8902 0.2356,2.945 0.8246,5.7723 l -42.2914,0.7068 q 0,-5.7723 -0.1178,-11.3091 -0.1178,-5.6545 -0.4712,-11.4269 l 7.6572,-0.1178 q -0.589,-11.0735 -1.4136,-21.9114 -0.7068,-10.8379 -1.5314,-21.7936 l -11.1914,-1.4136 q -0.2356,-4.9478 -0.4712,-9.7777 -0.1178,-4.9478 -0.3534,-9.8955 12.8406,-0.4712 25.4455,-1.0602 12.7228,-0.7068 25.6811,-1.6493 z" id="path2142" style="fill:#00eba7;fill-opacity:1;stroke-width:25.08323669"/>
          <path inkscape:connector-curvature="0" d="m -6049.0749,7324.6245 q 0,10.3667 -0.1178,20.4977 0,10.0133 -0.1178,20.38 -7.3038,-0.3534 -14.4898,-0.3534 -3.5341,0 -7.186,0.3534 -3.5341,0.3534 -7.0682,0.9424 -4.4765,-9.7776 -8.953,-19.3197 -4.4766,-9.6599 -8.9531,-19.4375 -3.2985,-7.186 -6.2435,-14.372 -2.9451,-7.186 -5.8902,-14.4898 -1.0602,15.9034 -2.2383,31.689 -1.0602,15.6679 -1.767,31.5713 l -25.4455,-0.7068 q -0.589,-22.6182 -1.0603,-45.0009 -0.4712,-22.3826 -1.6492,-45.0008 l 46.0611,-0.2356 q 2.356,5.8902 4.3587,11.8981 2.1205,5.8902 4.0053,12.016 2.7095,9.3064 6.1258,18.4951 3.4163,9.0708 6.8326,18.2595 -0.1178,-14.7254 -0.5891,-29.333 -0.3534,-14.6076 -0.589,-29.4509 l 23.7963,2.8273 q 0.4712,12.2516 0.8246,24.3853 0.3534,12.1337 0.3534,24.3853 z" id="path2144" style="fill:#00eba7;fill-opacity:1;stroke-width:25.08323669"/>
          <path inkscape:connector-curvature="0" d="m -5964.1387,7300.4748 q -10.2489,0.589 -20.2622,0.9424 -9.8955,0.3534 -20.0265,1.2959 l 0.9424,10.131 19.5553,1.2959 3.2985,11.7803 q -5.3011,1.178 -10.7201,1.8849 -5.3011,0.589 -10.6023,1.6492 1.1781,8.8353 1.6493,17.6705 0.4712,8.7174 0.4712,17.5527 l -30.9823,1.0602 q 0.5891,-13.783 0.7069,-27.3303 0.1178,-13.6652 0.1178,-27.4482 v -10.4845 -23.6785 q 6.8325,-0.1178 13.4295,-0.2356 6.7148,-0.2356 13.5474,-0.2356 9.1887,0 18.3773,0.4712 9.1887,0.3535 18.4951,0.8247 0.7068,5.6545 1.2959,11.4269 0.7068,5.6545 0.7068,11.4269 z" id="path2146" style="fill:#00eba7;fill-opacity:1;stroke-width:25.08323669"/>
          <path inkscape:connector-curvature="0" d="m -5855.5241,7312.2551 q 0,1.5315 0,3.0629 0,1.4137 -0.1178,2.8273 -0.1178,1.178 -0.3534,4.1231 -0.1178,2.9451 -0.4712,6.8326 -0.2356,3.7697 -0.7068,8.0106 -0.3535,4.2409 -0.9425,7.8928 -0.4712,3.5341 -1.0602,6.1258 -0.589,2.5917 -1.178,3.1807 -3.5341,3.5341 -8.4819,5.3011 -4.8299,1.6493 -10.1311,2.2383 -5.3011,0.589 -10.6022,0.4712 -5.3012,-0.1178 -9.8955,-0.1178 -1.5315,0 -5.1834,0 -3.6519,-0.1178 -8.364,-0.2356 -4.5943,-0.1178 -9.6599,-0.3534 -5.0655,-0.3534 -9.542,-0.8246 -4.3588,-0.589 -7.6572,-1.2959 -3.1807,-0.8246 -4.0054,-2.0026 -0.9424,-1.2958 -1.6492,-2.8273 -0.7068,-1.5314 -1.2958,-2.9451 -1.5315,-3.8875 -2.8273,-8.2462 -1.2959,-4.4765 -2.2383,-9.0709 -0.8246,-4.7121 -1.4136,-9.3064 -0.4712,-4.5943 -0.4712,-8.7175 0,-2.2382 0.3534,-5.7723 0.3534,-3.6519 0.9424,-7.775 0.589,-4.2409 1.4136,-8.5997 0.8247,-4.3587 1.7671,-8.1284 1.0602,-3.7697 2.2383,-6.4792 1.178,-2.8273 2.5916,-3.7697 1.1781,-0.8246 4.3588,-1.5314 3.1806,-0.7068 7.4216,-1.1781 4.2409,-0.589 9.0708,-0.9424 4.8299,-0.4712 9.1887,-0.7068 4.3587,-0.3534 7.8928,-0.4712 3.5341,-0.1178 5.1833,-0.1178 2.2383,0 6.008,0.2356 3.8875,0.2356 8.364,0.8246 4.4765,0.4712 9.0709,1.2959 4.5943,0.7068 8.4818,1.767 4.0053,1.0602 6.8326,2.3561 2.8273,1.2958 3.5341,2.8272 0.589,1.2959 1.0602,3.7697 0.589,2.3561 0.9425,5.419 0.3534,3.0629 0.589,6.4792 0.3534,3.4163 0.4712,6.597 0.2356,3.0628 0.3534,5.6545 0.1178,2.5917 0.1178,4.1231 z m -21.0868,3.8875 q 0,-2.356 -0.2356,-4.9477 -0.2356,-2.7095 -1.5314,-4.7121 -0.9425,-1.4137 -4.5944,-2.2383 -3.5341,-0.8246 -7.8928,-1.178 -4.2409,-0.3534 -8.2462,-0.3534 -4.0053,-0.1178 -5.6546,-0.1178 -1.2958,0 -4.5943,0.2356 -3.1807,0.2356 -6.8326,0.8246 -3.5341,0.4712 -6.597,1.2958 -3.0629,0.7069 -3.7697,1.7671 -0.7068,0.8246 -1.178,3.1807 -0.3534,2.2382 -0.7068,4.9477 -0.2356,2.5917 -0.3534,5.0655 -0.1178,2.3561 -0.1178,3.4163 0,0.9425 0,2.8273 0.1178,1.8849 0.3534,3.8875 0.2356,2.0027 0.4712,3.7697 0.3534,1.7671 0.9424,2.5917 0.3534,0.589 2.1205,1.0602 1.767,0.4712 4.2409,0.9425 2.5917,0.3534 5.4189,0.589 2.8273,0.2356 5.419,0.4712 2.7095,0.1178 4.7121,0.2356 2.1205,0 2.9451,0 1.4136,0 4.8299,-0.2356 3.5341,-0.2356 7.3038,-0.7068 3.8875,-0.589 7.0682,-1.2959 3.2985,-0.8246 4.241,-1.8848 0.7068,-0.8246 1.178,-3.4163 0.4712,-2.7095 0.7068,-5.7724 0.2356,-3.1807 0.2356,-6.0079 0.1178,-2.9451 0.1178,-4.241 z" id="path2148" style="fill:#00eba7;fill-opacity:1;stroke-width:25.08323669"/>
        </g>
      </g>
      <g style="fill:#fdffff;fill-opacity:1;stroke-width:1.67221558" transform="matrix(1.6927593,0,0,1.6958162,-1041.8643,-1486.391)" id="g2190">
        <g aria-label="2018" style="font-style:normal;font-variant:normal;font-weight:normal;font-stretch:normal;line-height:0%;font-family:Slackey;-inkscape-font-specification:'Slackey, Normal';text-align:center;writing-mode:lr-tb;text-anchor:middle;opacity:1;fill:#fdffff;fill-opacity:1;fill-rule:nonzero;stroke:none;stroke-width:15.04994011;stroke-linecap:round;stroke-linejoin:round;stroke-miterlimit:7;stroke-dasharray:none;stroke-dashoffset:0;stroke-opacity:1" id="text2156">
          <path d="m -916.71514,938.60085 q -0.1524,4.57202 -0.2286,9.14405 -0.0762,4.57202 -0.3048,9.14404 l -39.85281,1.44781 q -0.381,-5.79123 -0.91441,-11.50626 -0.4572,-5.79123 -0.9144,-11.65866 3.04802,-1.143 6.24843,-2.51461 3.20042,-1.44781 6.24843,-3.20042 3.04802,-1.75261 5.86744,-3.81002 2.81941,-2.05741 5.02922,-4.49582 1.14301,-1.29541 1.98121,-2.51461 0.91441,-1.29541 0.91441,-3.04802 0,-4.11482 -1.67641,-5.41023 -1.60021,-1.37161 -5.18163,-1.37161 -1.52401,0 -3.12422,0.0762 -1.524,0 -2.89561,0.2286 -2.20981,0.381 -2.74321,1.4478 -0.45721,1.06681 -0.45721,3.12422 0,0.6096 0,1.29541 0.0762,0.6858 0.1524,1.3716 l -11.81106,1.60021 q -0.4572,-3.42902 -0.4572,-6.78183 0,-0.83821 0.0762,-2.43842 0.1524,-1.6002 0.4572,-3.27661 0.381,-1.67641 0.91441,-3.12422 0.5334,-1.44781 1.44781,-1.98121 1.3716,-0.8382 4.34342,-1.44781 2.97181,-0.6096 6.32463,-0.9144 3.42902,-0.381 6.55323,-0.5334 3.12422,-0.1524 4.80063,-0.1524 2.89561,0 5.41023,0.1524 2.59081,0.1524 4.64822,0.9906 2.13361,0.762 3.65762,2.59081 1.52401,1.75261 2.28601,4.95303 0.381,1.75261 0.4572,3.58142 0.0762,1.82881 0.0762,3.58142 0,0.6858 -0.0762,1.82881 0,1.143 -0.0762,2.36221 -0.0762,1.21921 -0.3048,2.28601 -0.2286,1.06681 -0.5334,1.75261 -0.4572,0.8382 -1.82881,2.20981 -1.29541,1.29541 -2.89561,2.66702 -1.60021,1.2954 -3.12422,2.51461 -1.52401,1.143 -2.36221,1.75261 -1.29541,0.9144 -2.74322,1.75261 -1.3716,0.762 -2.66701,1.6002 -2.51461,1.44781 -5.10543,2.89562 -2.51461,1.37161 -5.10542,2.74321 14.70667,-0.2286 29.48955,-0.9144 z" style="font-size:78.02920532px;line-height:1.25;stroke-width:15.04994011" id="path3458" inkscape:connector-curvature="0"/>
          <path d="m -861.92706,920.84616 q 0,1.3716 0,3.73382 0,2.28601 -0.0762,5.18162 -0.0762,2.81942 -0.2286,5.86743 -0.1524,2.97182 -0.4572,5.71503 -0.3048,2.66702 -0.83821,4.72443 -0.4572,2.05741 -1.143,2.97181 -0.91441,1.06681 -2.13361,2.36222 -1.14301,1.2192 -2.51462,2.43841 -1.3716,1.143 -2.81941,2.05741 -1.37161,0.9144 -2.74321,1.29541 -1.21921,0.381 -3.42902,0.6096 -2.13361,0.2286 -4.49583,0.3048 -2.28601,0.1524 -4.49582,0.1524 -2.20981,0.0762 -3.58142,0.0762 -0.6858,0 -1.98121,0 -1.2192,0 -2.59081,-0.1524 -1.37161,-0.0762 -2.59082,-0.2286 -1.2192,-0.1524 -1.7526,-0.5334 -1.67641,-1.06681 -3.12422,-2.51462 -1.37161,-1.524 -2.43841,-3.27661 -0.99061,-1.60021 -1.52401,-3.65762 -0.5334,-2.05741 -0.91441,-3.96242 -0.381,-2.13361 -0.762,-4.64823 -0.3048,-2.59081 -0.6096,-5.25782 -0.2286,-2.66702 -0.38101,-5.25783 -0.1524,-2.59081 -0.1524,-4.87683 0,-1.2954 0.1524,-4.03862 0.15241,-2.81941 0.45721,-5.79123 0.381,-2.97181 0.9144,-5.56263 0.5334,-2.66701 1.37161,-3.65762 0.8382,-1.0668 2.59081,-1.90501 1.75261,-0.9144 3.96242,-1.6002 2.20981,-0.68581 4.64823,-1.14301 2.51461,-0.5334 4.87682,-0.8382 2.36221,-0.38101 4.34343,-0.53341 1.98121,-0.1524 3.20041,-0.1524 1.29541,0 2.89562,0.0762 1.60021,0 3.20041,0.1524 1.67641,0.1524 3.20042,0.45721 1.52401,0.3048 2.74321,0.8382 0.99061,0.4572 2.36222,1.44781 1.3716,0.9144 2.59081,2.05741 1.29541,1.143 2.28601,2.36221 1.06681,1.21921 1.44781,2.13361 0.2286,0.4572 0.3048,2.28601 0.0762,1.75261 0.1524,3.81002 0.0762,2.05741 0.0762,3.96242 0,1.82881 0,2.51462 z m -14.93528,8.99164 q 0,-0.8382 -0.0762,-2.59081 -0.0762,-1.82881 -0.2286,-4.03862 -0.0762,-2.28601 -0.2286,-4.64822 -0.1524,-2.43842 -0.4572,-4.57203 -0.2286,-2.13361 -0.5334,-3.65762 -0.3048,-1.60021 -0.68581,-2.13361 -0.6096,-0.8382 -1.82881,-0.9906 -1.2192,-0.2286 -2.20981,-0.2286 -0.8382,0 -2.43841,0.1524 -1.52401,0.1524 -3.20042,0.5334 -1.67641,0.3048 -3.12421,0.762 -1.44781,0.45721 -2.05741,1.06681 -0.91441,0.9144 -1.44781,3.65762 -0.4572,2.66701 -0.6858,5.86743 -0.22861,3.20041 -0.30481,6.17223 0,2.97182 0,4.41962 0,0.83821 0.0762,2.59082 0.0762,1.6764 0.1524,3.88622 0.15241,2.13361 0.30481,4.49582 0.2286,2.28601 0.4572,4.34342 0.2286,1.98121 0.4572,3.42902 0.3048,1.37161 0.6858,1.75261 0.30481,0.3048 0.83821,0.4572 0.6096,0.1524 1.29541,0.2286 0.6858,0.0762 1.2954,0.0762 0.60961,0 0.99061,0 0.8382,0 2.05741,-0.0762 1.2954,-0.0762 2.59081,-0.2286 1.37161,-0.1524 2.51461,-0.381 1.21921,-0.2286 1.98121,-0.6096 0.76201,-0.38101 1.37161,-1.75261 0.60961,-1.37161 0.99061,-3.27662 0.4572,-1.90501 0.6858,-4.03862 0.3048,-2.20981 0.4572,-4.26722 0.1524,-2.05741 0.2286,-3.73382 0.0762,-1.75261 0.0762,-2.66702 z" style="font-size:78.02920532px;line-height:1.25;stroke-width:15.04994011" id="path3460" inkscape:connector-curvature="0"/>
          <path d="m -831.3707,956.58414 q -4.64823,-0.381 -9.22025,-0.5334 -4.49582,-0.2286 -9.06785,-0.3048 l 2.05741,-40.69101 -6.09603,-0.60961 q 1.21921,-3.65761 1.67641,-7.31523 0.4572,-3.65762 1.06681,-7.39144 l 16.38308,-0.4572 q 0.91441,14.40187 1.60021,28.65134 0.762,14.24948 1.60021,28.65135 z" style="font-size:78.02920532px;line-height:1.25;stroke-width:15.04994011" id="path3462" inkscape:connector-curvature="0"/>
          <path d="m -775.3634,947.9735 q 0,1.2192 -0.1524,2.89561 -0.0762,1.67641 -0.6858,2.74322 -0.38101,0.6096 -1.06681,1.44781 -0.6096,0.8382 -1.44781,1.6764 -0.8382,0.76201 -1.67641,1.37161 -0.8382,0.6096 -1.524,0.83821 -0.30481,0.0762 -1.29541,0.1524 -0.91441,0.0762 -2.36221,0.0762 -1.37161,0.0762 -3.12422,0.0762 -1.67641,0 -3.35282,0 h -8.99164 q -2.28602,0.0762 -4.49583,0.0762 -1.90501,0 -4.03862,0 -2.13361,0 -3.73382,-0.1524 -1.2954,-0.0762 -2.43841,-1.52401 -1.06681,-1.44781 -1.90501,-3.35282 -0.8382,-1.90501 -1.44781,-3.81002 -0.5334,-1.90501 -0.762,-2.97181 -0.381,-1.37161 -0.4572,-2.59082 -0.0762,-1.2192 -0.0762,-2.59081 0,-1.14301 0.0762,-2.66701 0.0762,-1.52401 0.3048,-3.04802 0.3048,-1.52401 0.8382,-2.89562 0.53341,-1.3716 1.44781,-2.20981 0.381,-0.3048 1.14301,-0.6096 0.8382,-0.381 1.7526,-0.6858 0.91441,-0.38101 1.67641,-0.68581 0.83821,-0.3048 1.29541,-0.4572 -0.6096,-0.1524 -1.52401,-0.4572 -0.9144,-0.381 -1.82881,-0.83821 -0.9144,-0.4572 -1.67641,-1.0668 -0.762,-0.60961 -0.9906,-1.29541 -0.381,-1.0668 -0.762,-2.51461 -0.30481,-1.44781 -0.60961,-2.97182 -0.3048,-1.60021 -0.4572,-3.04801 -0.1524,-1.52401 -0.1524,-2.66702 0,-0.762 0,-2.28601 0,-1.52401 0.0762,-3.12422 0.1524,-1.6002 0.3048,-2.97181 0.2286,-1.37161 0.6858,-1.98121 1.14301,-1.52401 2.43842,-2.43841 1.3716,-0.91441 2.81941,-1.37161 1.52401,-0.5334 3.12422,-0.6858 1.67641,-0.15241 3.42902,-0.22861 2.81941,-0.0762 5.56262,-0.0762 2.74322,-0.0762 5.56263,-0.0762 0.83821,0 2.28602,0 1.524,0 3.12421,0 1.60021,0 3.04802,0.0762 1.4478,0.0762 2.13361,0.22861 1.29541,0.3048 2.66701,1.7526 1.44781,1.44781 2.66702,3.27662 1.2954,1.82881 2.13361,3.73382 0.9144,1.82881 1.0668,3.04802 0.3048,1.82881 0.3048,3.73382 0,1.82881 0,3.65762 0,0.4572 0,1.2954 0,0.83821 -0.0762,1.75261 0,0.83821 -0.0762,1.67641 -0.0762,0.762 -0.2286,1.14301 -0.1524,0.3048 -1.143,1.0668 -0.91441,0.76201 -2.13361,1.60021 -1.14301,0.8382 -2.20982,1.60021 -0.9906,0.6858 -1.2192,0.8382 0.762,0.381 1.82881,0.99061 1.0668,0.6096 2.13361,1.4478 1.0668,0.76201 1.90501,1.67641 0.8382,0.91441 1.0668,1.82881 0.30481,1.29541 0.53341,2.89562 0.2286,1.60021 0.381,3.35282 0.1524,1.6764 0.2286,3.35281 0.0762,1.67641 0.0762,2.97182 z m -14.78288,-30.17536 q 0,-0.6858 -0.0762,-2.43841 -0.0762,-1.75261 -0.3048,-3.58142 -0.2286,-1.90501 -0.6096,-3.50522 -0.3048,-1.60021 -0.83821,-2.05741 -0.2286,-0.2286 -0.8382,-0.3048 -0.6096,-0.1524 -1.29541,-0.1524 -0.6096,-0.0762 -1.2954,-0.0762 -0.60961,-0.0762 -0.91441,-0.0762 -0.5334,0 -2.28601,0.0762 -1.67641,0.0762 -3.58142,0.2286 -1.90501,0.1524 -3.50522,0.381 -1.60021,0.2286 -1.98121,0.5334 -0.4572,0.38101 -0.8382,1.37161 -0.3048,0.91441 -0.60961,2.05741 -0.2286,1.14301 -0.381,2.28601 -0.1524,1.06681 -0.1524,1.60021 0,0.60961 0.0762,2.05741 0.0762,1.44781 0.2286,2.97182 0.1524,1.52401 0.38101,2.89561 0.3048,1.29541 0.6858,1.67641 0.381,0.381 1.0668,0.60961 0.76201,0.1524 1.60021,0.3048 0.83821,0.0762 1.60021,0.0762 0.76201,0 1.29541,0 1.0668,0 2.74321,0.0762 1.75261,0 3.50522,-0.0762 1.75261,-0.1524 3.27662,-0.53341 1.60021,-0.381 2.28601,-1.143 0.2286,-0.3048 0.381,-0.99061 0.1524,-0.762 0.2286,-1.524 0.0762,-0.83821 0.0762,-1.60021 0.0762,-0.76201 0.0762,-1.14301 z m 0.83821,22.47912 q 0,-0.76201 -0.0762,-1.67641 -0.0762,-0.99061 -0.3048,-1.90501 -0.22861,-0.91441 -0.68581,-1.67641 -0.381,-0.8382 -1.0668,-1.29541 -0.53341,-0.381 -1.90501,-0.381 -1.29541,-0.0762 -2.05741,-0.0762 -0.76201,0 -2.59082,0.0762 -1.82881,0.0762 -3.88622,0.3048 -1.98121,0.1524 -3.73382,0.45721 -1.75261,0.3048 -2.28601,0.762 -0.4572,0.381 -0.8382,1.29541 -0.3048,0.8382 -0.53341,1.90501 -0.2286,0.9906 -0.381,1.98121 -0.1524,0.9906 -0.1524,1.524 0,0.68581 0.2286,2.13362 0.2286,1.3716 0.60961,2.89561 0.381,1.44781 0.9144,2.66701 0.5334,1.14301 1.21921,1.44781 0.1524,0.0762 0.5334,0.1524 0.381,0 0.8382,0 0.45721,0 0.83821,0 0.381,0 0.6096,0 0.5334,0 2.43841,0 1.90501,-0.0762 3.96242,-0.1524 2.05742,-0.0762 3.81002,-0.2286 1.75261,-0.1524 2.05741,-0.3048 0.60961,-0.3048 1.06681,-1.67641 0.4572,-1.37161 0.762,-2.97181 0.30481,-1.60021 0.45721,-3.12422 0.1524,-1.52401 0.1524,-2.13361 z" style="font-size:78.02920532px;line-height:1.25;stroke-width:15.04994011" id="path3464" inkscape:connector-curvature="0"/>
        </g>
        <g id="g2178" style="font-style:normal;font-variant:normal;font-weight:bold;font-stretch:normal;font-size:56.70814896px;line-height:100%;font-family:Raleway;-inkscape-font-specification:'Raleway, Bold';text-align:center;writing-mode:lr-tb;text-anchor:middle;opacity:1;fill:#fdffff;fill-opacity:1;fill-rule:nonzero;stroke:none;stroke-width:25.08323669;stroke-linecap:round;stroke-linejoin:round;stroke-miterlimit:4;stroke-dasharray:none;stroke-dashoffset:0;stroke-opacity:1" transform="matrix(0.53012825,0,0,0.53359331,2330.0998,-3039.1599)">
          <path style="fill:#fdffff;fill-opacity:1;stroke-width:25.08323669" id="path2158" d="m -6207.571,7260.896 v -40.2628 h 7.8257 v 33.4011 h 20.5283 v 6.8617 z" inkscape:connector-curvature="0"/>
          <path style="fill:#fdffff;fill-opacity:1;stroke-width:25.08323669" id="path2160" d="m -6162.9993,7220.6332 h 6.9184 l 15.3112,40.2628 h -8.0526 l -3.7427,-10.0373 h -14.0636 l -3.6861,10.0373 h -8.0525 z m 9.0166,24.7248 -5.5574,-15.8216 -5.7842,15.8216 z" inkscape:connector-curvature="0"/>
          <path style="fill:#fdffff;fill-opacity:1;stroke-width:25.08323669" id="path2162" d="m -6116.6767,7235.0938 v 25.8022 h -7.8258 v -40.2628 h 6.0678 l 20.982,26.426 v -26.3693 h 7.8258 v 40.2061 h -6.3514 z" inkscape:connector-curvature="0"/>
          <path style="fill:#fdffff;fill-opacity:1;stroke-width:25.08323669" id="path2164" d="m -6064.1836,7254.2611 q 2.7787,0 4.6501,-1.1341 1.9281,-1.1342 3.0622,-2.9488 1.1909,-1.8147 1.6446,-4.1397 0.5103,-2.3818 0.5103,-4.8769 v -20.5284 h 7.769 v 20.5284 q 0,4.1397 -1.0207,7.769 -0.964,3.6293 -3.1189,6.3513 -2.0983,2.722 -5.444,4.3098 -3.3458,1.5878 -7.9959,1.5878 -4.8202,0 -8.2227,-1.6445 -3.3457,-1.7012 -5.4439,-4.4232 -2.0982,-2.7787 -3.0623,-6.4081 -0.9073,-3.6293 -0.9073,-7.5421 v -20.5284 h 7.8257 v 20.5284 q 0,2.5518 0.4537,4.9336 0.5103,2.325 1.6445,4.1397 1.1909,1.8146 3.0623,2.9488 1.8713,1.0774 4.5933,1.0774 z" inkscape:connector-curvature="0"/>
          <path style="fill:#fdffff;fill-opacity:1;stroke-width:25.08323669" id="path2166" d="m -6038.6649,7260.896 v -40.2628 h 7.8257 v 40.2628 z" inkscape:connector-curvature="0"/>
          <path style="fill:#fdffff;fill-opacity:1;stroke-width:25.08323669" id="path2168" d="m -5992.3822,7227.4949 h -12.8728 v 33.4011 h -7.769 v -33.4011 h -12.8727 v -6.8617 h 33.5145 z" inkscape:connector-curvature="0"/>
          <path style="fill:#fdffff;fill-opacity:1;stroke-width:25.08323669" id="path2170" d="m -5975.3113,7260.896 v -40.2628 h 14.6307 q 4.9336,0 8.6197,1.5878 3.7427,1.5879 6.2379,4.3099 2.4951,2.7219 3.7427,6.408 1.2476,3.6293 1.2476,7.769 0,4.5934 -1.4177,8.3361 -1.361,3.686 -3.9696,6.3513 -2.6086,2.6086 -6.2946,4.083 -3.6293,1.4177 -8.166,1.4177 z m 26.5961,-20.1881 q 0,-2.8921 -0.7939,-5.3306 -0.7939,-2.4384 -2.325,-4.1964 -1.5311,-1.7579 -3.7995,-2.722 -2.2116,-0.964 -5.047,-0.964 h -6.805 v 26.5394 h 6.805 q 2.8921,0 5.1038,-1.0207 2.2683,-1.0208 3.7427,-2.7787 1.5311,-1.8147 2.325,-4.2531 0.7939,-2.4385 0.7939,-5.2739 z" inkscape:connector-curvature="0"/>
          <path style="fill:#fdffff;fill-opacity:1;stroke-width:25.08323669" id="path2172" d="m -5906.8167,7254.0343 v 6.8617 h -27.9571 v -40.2628 h 27.4467 v 6.8617 h -19.621 v 9.6971 h 16.9557 v 6.3513 h -16.9557 v 10.491 z" inkscape:connector-curvature="0"/>
          <path style="fill:#fdffff;fill-opacity:1;stroke-width:25.08323669" id="path2174" d="m -5887.0371,7260.896 v -40.2628 h 7.8257 v 33.4011 h 20.5284 v 6.8617 z" inkscape:connector-curvature="0"/>
          <path style="fill:#fdffff;fill-opacity:1;stroke-width:25.08323669" id="path2176" d="m -5859.3095,7232.5986 v -12.7026 h 6.4648 v 12.7026 z" inkscape:connector-curvature="0"/>
        </g>
        <g id="g2188" style="font-style:normal;font-variant:normal;font-weight:normal;font-stretch:normal;font-size:120.63054657px;line-height:100%;font-family:Slackey;-inkscape-font-specification:'Slackey, Normal';text-align:center;writing-mode:lr-tb;text-anchor:middle;opacity:1;fill:#fdffff;fill-opacity:1;fill-rule:nonzero;stroke:none;stroke-width:25.08323669;stroke-linecap:round;stroke-linejoin:round;stroke-miterlimit:4;stroke-dasharray:none;stroke-dashoffset:0;stroke-opacity:1" transform="matrix(0.53012825,0,0,0.53359331,2330.0998,-3039.1599)">
          <path style="fill:#fdffff;fill-opacity:1;stroke-width:25.08323669" id="path2180" d="m -6156.6293,7276.0895 q -0.589,7.186 -0.4712,14.372 0.1178,7.0682 -0.1178,14.1364 l -13.0761,-0.4712 q -0.1178,4.1231 -0.2356,8.1284 0,4.0053 0,8.1285 0,4.9477 0,9.7776 0.1178,4.7122 0.2356,9.6599 l 12.0159,0.2356 q -0.2356,3.4163 -0.2356,6.9504 0,3.5341 0,7.0682 0,2.9451 0.1178,5.8902 0.2356,2.945 0.8246,5.7723 l -42.2914,0.7068 q 0,-5.7723 -0.1178,-11.3091 -0.1178,-5.6545 -0.4712,-11.4269 l 7.6572,-0.1178 q -0.589,-11.0735 -1.4136,-21.9114 -0.7068,-10.8379 -1.5314,-21.7936 l -11.1914,-1.4136 q -0.2356,-4.9478 -0.4712,-9.7777 -0.1178,-4.9478 -0.3534,-9.8955 12.8406,-0.4712 25.4455,-1.0602 12.7228,-0.7068 25.6811,-1.6493 z" inkscape:connector-curvature="0"/>
          <path style="fill:#fdffff;fill-opacity:1;stroke-width:25.08323669" id="path2182" d="m -6049.0749,7324.6245 q 0,10.3667 -0.1178,20.4977 0,10.0133 -0.1178,20.38 -7.3038,-0.3534 -14.4898,-0.3534 -3.5341,0 -7.186,0.3534 -3.5341,0.3534 -7.0682,0.9424 -4.4765,-9.7776 -8.953,-19.3197 -4.4766,-9.6599 -8.9531,-19.4375 -3.2985,-7.186 -6.2435,-14.372 -2.9451,-7.186 -5.8902,-14.4898 -1.0602,15.9034 -2.2383,31.689 -1.0602,15.6679 -1.767,31.5713 l -25.4455,-0.7068 q -0.589,-22.6182 -1.0603,-45.0009 -0.4712,-22.3826 -1.6492,-45.0008 l 46.0611,-0.2356 q 2.356,5.8902 4.3587,11.8981 2.1205,5.8902 4.0053,12.016 2.7095,9.3064 6.1258,18.4951 3.4163,9.0708 6.8326,18.2595 -0.1178,-14.7254 -0.5891,-29.333 -0.3534,-14.6076 -0.589,-29.4509 l 23.7963,2.8273 q 0.4712,12.2516 0.8246,24.3853 0.3534,12.1337 0.3534,24.3853 z" inkscape:connector-curvature="0"/>
          <path style="fill:#fdffff;fill-opacity:1;stroke-width:25.08323669" id="path2184" d="m -5964.1387,7300.4748 q -10.2489,0.589 -20.2622,0.9424 -9.8955,0.3534 -20.0265,1.2959 l 0.9424,10.131 19.5553,1.2959 3.2985,11.7803 q -5.3011,1.178 -10.7201,1.8849 -5.3011,0.589 -10.6023,1.6492 1.1781,8.8353 1.6493,17.6705 0.4712,8.7174 0.4712,17.5527 l -30.9823,1.0602 q 0.5891,-13.783 0.7069,-27.3303 0.1178,-13.6652 0.1178,-27.4482 v -10.4845 -23.6785 q 6.8325,-0.1178 13.4295,-0.2356 6.7148,-0.2356 13.5474,-0.2356 9.1887,0 18.3773,0.4712 9.1887,0.3535 18.4951,0.8247 0.7068,5.6545 1.2959,11.4269 0.7068,5.6545 0.7068,11.4269 z" inkscape:connector-curvature="0"/>
          <path style="fill:#fdffff;fill-opacity:1;stroke-width:25.08323669" id="path2186" d="m -5855.5241,7312.2551 q 0,1.5315 0,3.0629 0,1.4137 -0.1178,2.8273 -0.1178,1.178 -0.3534,4.1231 -0.1178,2.9451 -0.4712,6.8326 -0.2356,3.7697 -0.7068,8.0106 -0.3535,4.2409 -0.9425,7.8928 -0.4712,3.5341 -1.0602,6.1258 -0.589,2.5917 -1.178,3.1807 -3.5341,3.5341 -8.4819,5.3011 -4.8299,1.6493 -10.1311,2.2383 -5.3011,0.589 -10.6022,0.4712 -5.3012,-0.1178 -9.8955,-0.1178 -1.5315,0 -5.1834,0 -3.6519,-0.1178 -8.364,-0.2356 -4.5943,-0.1178 -9.6599,-0.3534 -5.0655,-0.3534 -9.542,-0.8246 -4.3588,-0.589 -7.6572,-1.2959 -3.1807,-0.8246 -4.0054,-2.0026 -0.9424,-1.2958 -1.6492,-2.8273 -0.7068,-1.5314 -1.2958,-2.9451 -1.5315,-3.8875 -2.8273,-8.2462 -1.2959,-4.4765 -2.2383,-9.0709 -0.8246,-4.7121 -1.4136,-9.3064 -0.4712,-4.5943 -0.4712,-8.7175 0,-2.2382 0.3534,-5.7723 0.3534,-3.6519 0.9424,-7.775 0.589,-4.2409 1.4136,-8.5997 0.8247,-4.3587 1.7671,-8.1284 1.0602,-3.7697 2.2383,-6.4792 1.178,-2.8273 2.5916,-3.7697 1.1781,-0.8246 4.3588,-1.5314 3.1806,-0.7068 7.4216,-1.1781 4.2409,-0.589 9.0708,-0.9424 4.8299,-0.4712 9.1887,-0.7068 4.3587,-0.3534 7.8928,-0.4712 3.5341,-0.1178 5.1833,-0.1178 2.2383,0 6.008,0.2356 3.8875,0.2356 8.364,0.8246 4.4765,0.4712 9.0709,1.2959 4.5943,0.7068 8.4818,1.767 4.0053,1.0602 6.8326,2.3561 2.8273,1.2958 3.5341,2.8272 0.589,1.2959 1.0602,3.7697 0.589,2.3561 0.9425,5.419 0.3534,3.0629 0.589,6.4792 0.3534,3.4163 0.4712,6.597 0.2356,3.0628 0.3534,5.6545 0.1178,2.5917 0.1178,4.1231 z m -21.0868,3.8875 q 0,-2.356 -0.2356,-4.9477 -0.2356,-2.7095 -1.5314,-4.7121 -0.9425,-1.4137 -4.5944,-2.2383 -3.5341,-0.8246 -7.8928,-1.178 -4.2409,-0.3534 -8.2462,-0.3534 -4.0053,-0.1178 -5.6546,-0.1178 -1.2958,0 -4.5943,0.2356 -3.1807,0.2356 -6.8326,0.8246 -3.5341,0.4712 -6.597,1.2958 -3.0629,0.7069 -3.7697,1.7671 -0.7068,0.8246 -1.178,3.1807 -0.3534,2.2382 -0.7068,4.9477 -0.2356,2.5917 -0.3534,5.0655 -0.1178,2.3561 -0.1178,3.4163 0,0.9425 0,2.8273 0.1178,1.8849 0.3534,3.8875 0.2356,2.0027 0.4712,3.7697 0.3534,1.7671 0.9424,2.5917 0.3534,0.589 2.1205,1.0602 1.767,0.4712 4.2409,0.9425 2.5917,0.3534 5.4189,0.589 2.8273,0.2356 5.419,0.4712 2.7095,0.1178 4.7121,0.2356 2.1205,0 2.9451,0 1.4136,0 4.8299,-0.2356 3.5341,-0.2356 7.3038,-0.7068 3.8875,-0.589 7.0682,-1.2959 3.2985,-0.8246 4.241,-1.8848 0.7068,-0.8246 1.178,-3.4163 0.4712,-2.7095 0.7068,-5.7724 0.2356,-3.1807 0.2356,-6.0079 0.1178,-2.9451 0.1178,-4.241 z" inkscape:connector-curvature="0"/>
        </g>
      </g>
    </g>
  </g>
</svg>